<svg xmlns="http://www.w3.org/2000/svg" width="32px" height="32px"  viewBox="0 0 24 24"><path d="M21.061,11.077l-17.32-6.92c-0.42-0.17-0.9-0.04-1.17,0.32c-0.28,0.37-0.28,0.85-0.01,1.22l4.49,6
                c0.13,0.18,0.13,0.44-0.01,0.62l-4.53,5.98c-0.27,0.37-0.27,0.86,0,1.22c0.2,0.26,0.49,0.4,0.8,0.4c0.13,0,0.25-0.02,0.38-0.07
                l17.36-6.9c0.39-0.15,0.64-0.52,0.64-0.94C21.691,11.597,21.441,11.227,21.061,11.077z M3.371,5.087l16.06,6.42H8.061
                c-0.04-0.15-0.12-0.28-0.21-0.41L3.371,5.087z M3.311,18.907l4.53-5.98c0.1-0.13,0.18-0.27,0.22-0.42h11.38L3.311,18.907z"/></svg>